<?xml version="1.0" standalone="no"?>
<!DOCTYPE svg PUBLIC "-//W3C//DTD SVG 20010904//EN"
 "http://www.w3.org/TR/2001/REC-SVG-20010904/DTD/svg10.dtd">
<svg version="1.0" xmlns="http://www.w3.org/2000/svg"
 width="700.000000pt" height="700.000000pt" viewBox="0 0 700.000000 700.000000"
 preserveAspectRatio="xMidYMid meet">
<metadata>
Created by potrace 1.11, written by Peter Selinger 2001-2013
</metadata>
<g transform="translate(0.000000,700.000000) scale(0.100000,-0.100000)"
fill="#000000" stroke="none">
<path d="M1949 6996 c-2 -2 -35 -6 -74 -10 -38 -3 -81 -8 -95 -10 -14 -3 -38
-7 -55 -10 -111 -19 -174 -35 -315 -83 -653 -220 -1166 -776 -1341 -1451 -34
-132 -35 -138 -58 -317 -10 -75 -8 -3222 1 -3265 4 -14 9 -47 13 -75 11 -87
65 -297 102 -395 32 -85 124 -284 156 -335 187 -303 381 -509 641 -685 251
-171 577 -298 861 -336 28 -3 59 -9 70 -12 11 -4 733 -7 1605 -8 1750 -3 1688
-5 1955 62 439 109 824 353 1111 705 62 76 199 273 199 288 0 3 8 17 17 31 22
32 93 187 123 266 30 79 84 268 91 314 2 19 7 46 10 60 30 126 32 244 32 1770
0 1541 -2 1636 -33 1780 -3 14 -8 39 -10 55 -3 17 -17 72 -31 123 -119 442
-392 843 -762 1121 -144 108 -270 180 -462 264 -69 30 -207 75 -300 97 -122
28 -126 29 -180 35 -25 3 -56 8 -70 12 -25 7 -3193 16 -3201 9z"/>
</g>
</svg>
